<svg width="25" height="25" viewBox="0 0 25 25" fill="none" xmlns="http://www.w3.org/2000/svg">
<path d="M14.3951 2.03003H9.69505C8.65505 2.03003 7.80505 2.87003 7.80505 3.91003V4.85003C7.80505 5.89003 8.64505 6.73003 9.68505 6.73003H14.3951C15.4351 6.73003 16.2751 5.89003 16.2751 4.85003V3.91003C16.2851 2.87003 15.4351 2.03003 14.3951 2.03003Z" fill="white"/>
<path d="M17.2851 4.85001C17.2851 6.44001 15.9851 7.74001 14.3951 7.74001H9.69508C8.10508 7.74001 6.80508 6.44001 6.80508 4.85001C6.80508 4.29001 6.20508 3.94001 5.70508 4.20001C4.29508 4.95001 3.33508 6.44001 3.33508 8.15001V17.56C3.33508 20.02 5.34508 22.03 7.80508 22.03H16.2851C18.7451 22.03 20.7551 20.02 20.7551 17.56V8.15001C20.7551 6.44001 19.7951 4.95001 18.3851 4.20001C17.8851 3.94001 17.2851 4.29001 17.2851 4.85001ZM12.4251 16.98H8.04508C7.63508 16.98 7.29508 16.64 7.29508 16.23C7.29508 15.82 7.63508 15.48 8.04508 15.48H12.4251C12.8351 15.48 13.1751 15.82 13.1751 16.23C13.1751 16.64 12.8351 16.98 12.4251 16.98ZM15.0451 12.98H8.04508C7.63508 12.98 7.29508 12.64 7.29508 12.23C7.29508 11.82 7.63508 11.48 8.04508 11.48H15.0451C15.4551 11.48 15.7951 11.82 15.7951 12.23C15.7951 12.64 15.4551 12.98 15.0451 12.98Z" fill="white"/>
</svg>
