<svg width="24" height="25" viewBox="0 0 24 25" fill="none" xmlns="http://www.w3.org/2000/svg">
<path d="M16 13.3502V17.5502C16 21.0502 14.6 22.4502 11.1 22.4502H6.9C3.4 22.4502 2 21.0502 2 17.5502V13.3502C2 9.85019 3.4 8.4502 6.9 8.4502H11.1C14.6 8.4502 16 9.85019 16 13.3502Z" fill="#E84A5F"/>
<path d="M17.0998 2.4502H12.8998C9.81668 2.4502 8.37074 3.54428 8.06951 6.18921C8.00649 6.74254 8.46476 7.2002 9.02167 7.2002H11.0998C15.2998 7.2002 17.2498 9.1502 17.2498 13.3502V15.4283C17.2498 15.9852 17.7074 16.4435 18.2608 16.3805C20.9057 16.0792 21.9998 14.6333 21.9998 11.5502V7.3502C21.9998 3.8502 20.5998 2.4502 17.0998 2.4502Z" fill="#E84A5F"/>
</svg>
