<svg width="33" height="32" viewBox="0 0 33 32" fill="none" xmlns="http://www.w3.org/2000/svg">
<path fill-rule="evenodd" clip-rule="evenodd" d="M4.86682 24.3201H27.7044C29.5473 24.3201 31.0551 25.8279 31.0551 27.6708C31.0551 29.5138 29.5473 31.0215 27.7044 31.0215H4.86682C3.02389 31.0215 1.51611 29.5138 1.51611 27.6708C1.51611 25.8279 3.02396 24.3201 4.86682 24.3201ZM26.9538 25.908C25.9803 25.908 25.191 26.6973 25.191 27.6708C25.191 28.6444 25.9803 29.4336 26.9538 29.4336C27.9274 29.4336 28.7166 28.6444 28.7166 27.6708C28.7166 26.6973 27.9274 25.908 26.9538 25.908ZM19.8417 25.908C18.8681 25.908 18.0789 26.6973 18.0789 27.6708C18.0789 28.6444 18.8681 29.4336 19.8417 29.4336C20.8152 29.4336 21.6045 28.6444 21.6045 27.6708C21.6045 26.6973 20.8152 25.908 19.8417 25.908ZM12.7295 25.908C11.756 25.908 10.9667 26.6973 10.9667 27.6708C10.9667 28.6444 11.756 29.4336 12.7295 29.4336C13.7031 29.4336 14.4924 28.6444 14.4924 27.6708C14.4924 26.6973 13.7031 25.908 12.7295 25.908ZM5.61742 25.908C4.64386 25.908 3.85462 26.6973 3.85462 27.6708C3.85462 28.6444 4.64386 29.4336 5.61742 29.4336C6.59098 29.4336 7.38022 28.6444 7.38022 27.6708C7.38022 26.6973 6.59098 25.908 5.61742 25.908Z" fill="#E84A5F"/>
<path d="M26.4846 16.8183C27.5323 16.2438 28.2427 15.1306 28.2427 13.8514C28.2427 12.6869 27.6539 11.6598 26.7578 11.0517C26.2976 11.5822 25.6186 11.9179 24.8615 11.9179C24.1043 11.9179 23.4253 11.5822 22.9651 11.0517C22.069 11.6598 21.4802 12.6869 21.4802 13.8514C21.4802 15.1022 22.1593 16.1942 23.1689 16.7791V13.8029L24.8267 12.8457L26.4846 13.8029V16.8183Z" fill="#E84A5F"/>
<path d="M26.3862 9.40848C26.3862 8.56637 25.7036 7.88371 24.8615 7.88371C24.0193 7.88371 23.3366 8.56637 23.3367 9.40848C23.3367 10.2506 24.0193 10.9332 24.8615 10.9332C25.7035 10.9332 26.3862 10.2506 26.3862 9.40848Z" fill="#E84A5F"/>
<path d="M23.1027 2.00354L20.6313 3.21852L22.958 7.77361C23.4108 7.2469 24.0785 6.91015 24.8249 6.89951L23.1027 2.00354Z" fill="#E84A5F"/>
<path d="M23.6609 18.5031H21.9308L21.9308 23.3582C21.9308 23.5492 22.0866 23.705 22.2776 23.705H26.786C26.977 23.705 27.1328 23.5492 27.1328 23.3582V18.5031H25.4027V20.6254H23.6609V18.5031Z" fill="#4C5562"/>
<path d="M15.1073 18.5031H13.3771L13.3772 23.3582C13.3772 23.5492 13.533 23.705 13.724 23.705H18.2324C18.4234 23.705 18.5791 23.5492 18.5791 23.3582V18.5031H16.849V20.6254H15.1073V18.5031Z" fill="#4C5562"/>
<path d="M7.16909 18.5031H5.43896L5.43903 23.3582C5.43903 23.5492 5.59478 23.705 5.7858 23.705H10.2942C10.4852 23.705 10.641 23.5492 10.641 23.3582V18.5031H8.91084V20.6254H7.16909V18.5031Z" fill="#4C5562"/>
<path d="M8.23875 10.7846C8.23875 10.5127 8.01831 10.2923 7.74643 10.2923H7.06703C6.79515 10.2923 6.57472 10.5127 6.57472 10.7846C6.57472 11.0565 6.79515 11.2769 7.06703 11.2769H7.74643C8.01831 11.2769 8.23875 11.0565 8.23875 10.7846Z" fill="#4C5562"/>
<path d="M6.48868 7.01858C6.48868 6.74775 6.26911 6.52817 5.99827 6.52817H4.07233C3.8015 6.52817 3.58192 6.74775 3.58192 7.01858C3.58192 7.28942 3.8015 7.50899 4.07233 7.50899H5.99827C6.26911 7.50899 6.48868 7.28942 6.48868 7.01858Z" fill="#4C5562"/>
<path d="M6.64721 8.90157C6.64721 8.62969 6.42677 8.40925 6.15489 8.40925H5.05032C4.77844 8.40925 4.558 8.62969 4.558 8.90157C4.558 9.17345 4.77844 9.39389 5.05032 9.39389H6.15489C6.42677 9.39389 6.64721 9.17345 6.64721 8.90157Z" fill="#4C5562"/>
<path d="M8.07721 5.13553C8.07721 4.86365 7.85677 4.64321 7.58489 4.64321H5.28515C5.01327 4.64321 4.79284 4.86365 4.79284 5.13553C4.79284 5.40741 5.01327 5.62785 5.28515 5.62785H7.58489C7.85677 5.62785 8.07721 5.40741 8.07721 5.13553Z" fill="#4C5562"/>
<path d="M8.77217 3.99988L9.02725 3.7448H7.88311C7.61123 3.7448 7.39079 3.52436 7.39079 3.25248C7.39079 2.9806 7.61123 2.76016 7.88311 2.76016H9.8813C9.97152 2.76016 10.0487 2.77653 10.1311 2.81315L11.0637 3.22731C11.5643 2.91912 12.1104 2.69235 12.6823 2.55628L13.0955 1.48291H14.8487L15.2617 2.55628C15.8336 2.69235 16.3798 2.91912 16.8804 3.22731L17.9322 2.76016L19.1719 3.99982L18.7049 5.05134C19.0133 5.55203 19.24 6.09844 19.3761 6.67045L20.4492 7.08351V8.83664L19.3759 9.24982C19.2398 9.82177 19.013 10.3679 18.7048 10.8685L19.172 11.9203L17.9323 13.16L16.8809 12.693C16.3803 13.0013 15.8338 13.228 15.2618 13.3642L14.8487 14.4373H13.0956L12.6824 13.3639C12.1104 13.2278 11.5643 13.001 11.0637 12.6928L10.1312 13.107C10.0487 13.1436 9.97152 13.16 9.88136 13.16H7.02826C6.75638 13.16 6.53595 12.9396 6.53595 12.6677C6.53595 12.3958 6.75638 12.1754 7.02826 12.1754H9.02719L8.77217 11.9203L9.2392 10.8688C8.93088 10.3682 8.70417 9.82171 8.56805 9.2497L7.49492 8.83664V7.08351L8.56817 6.67039C8.70423 6.09844 8.93101 5.55215 9.23926 5.05159L8.77217 3.99988Z" fill="#4C5562"/>
<path d="M6.77109 3.25248C6.77109 2.9806 6.55065 2.76016 6.27877 2.76016H4.13307C3.86119 2.76016 3.64075 2.9806 3.64075 3.25248C3.64075 3.52436 3.86119 3.7448 4.13307 3.7448H6.27877C6.55065 3.7448 6.77109 3.52436 6.77109 3.25248Z" fill="#4C5562"/>
<path d="M6.10012 10.7846C6.10012 10.5127 5.87969 10.2923 5.60781 10.2923H3.46204C3.19016 10.2923 2.96973 10.5127 2.96973 10.7846C2.96973 11.0565 3.19016 11.2769 3.46204 11.2769H5.60781C5.87969 11.2769 6.10012 11.0565 6.10012 10.7846Z" fill="#4C5562"/>
<path d="M17.5141 7.95995C17.5141 6.00317 15.9282 4.41724 13.9714 4.41724C12.0147 4.41724 10.4287 6.00317 10.4287 7.95995C10.4287 9.91672 12.0147 11.5027 13.9714 11.5027C15.9282 11.5027 17.5141 9.91672 17.5141 7.95995Z" fill="white"/>
</svg>
