<svg width="33" height="33" viewBox="0 0 33 33" fill="none" xmlns="http://www.w3.org/2000/svg">
<g clip-path="url(#clip0_1121_76592)">
<g clip-path="url(#clip1_1121_76592)">
<path d="M5.16482 22.2959C2.60579 22.2959 0.53125 24.3704 0.53125 26.9295C0.53125 29.4886 2.60579 31.563 5.16482 31.563H32.0395V29.7096H28.3327V27.8562H5.16482V26.0028H28.3327V24.1493H32.0395V22.2959C29.9314 22.2959 6.41045 22.2959 5.16482 22.2959Z" fill="#4C5562"/>
<path d="M26.48 17.6599V20.4426H32.0403V17.6599C30.3937 18.8988 28.1284 18.9002 26.48 17.6599Z" fill="#4C5562"/>
<path d="M24.6257 9.74341L16.2852 12.2223L7.94482 10.269V13.9555H24.6257V9.74341Z" fill="#4C5562"/>
<path d="M7.94482 15.8088H24.6257V18.589H7.94482V15.8088Z" fill="#E84A5F"/>
<path d="M28.3332 6.70853V11.3352C27.2545 11.7178 26.4797 12.7479 26.4797 13.956C26.4797 15.4889 27.7268 16.7361 29.2599 16.7361C30.7929 16.7361 32.04 15.4889 32.04 13.956C32.04 12.7479 31.2652 11.7178 30.1866 11.3352V6.15769L32.0107 5.61556L16.2859 0.941895L0.561035 5.6155L16.2859 10.2892L28.3332 6.70853Z" fill="#E84A5F"/>
</g>
</g>
<defs>
<clipPath id="clip0_1121_76592">
<rect width="32" height="32" fill="white" transform="translate(0.311523 0.393799)"/>
</clipPath>
<clipPath id="clip1_1121_76592">
<rect width="31.5083" height="31.5083" fill="white" transform="translate(0.53125 0.498047)"/>
</clipPath>
</defs>
</svg>
