<svg width="33" height="33" viewBox="0 0 33 33" fill="none" xmlns="http://www.w3.org/2000/svg">
<g clip-path="url(#clip0_1121_76760)">
<g clip-path="url(#clip1_1121_76760)">
<g clip-path="url(#clip2_1121_76760)">
<path d="M31.4985 6.65227L25.8853 1.03906V6.65227H31.4985Z" fill="#E84A55"/>
<path d="M1.76172 31.0842C1.76172 31.594 2.17502 32.0073 2.68481 32.0073H14.685V29.238H1.76172V31.0842Z" fill="#E84A55"/>
<path d="M14.9935 27.3918H1.45483C0.945038 27.3918 0.531738 26.9785 0.531738 26.4687V26.161C0.531738 24.8016 1.63385 23.6995 2.99332 23.6995H13.4551C14.8145 23.6995 15.9166 24.8016 15.9166 26.161V26.4687C15.9166 26.9785 15.5033 27.3918 14.9935 27.3918Z" fill="#E84A55"/>
<path d="M16.6548 9.72973C17.6744 9.72973 18.501 8.90316 18.501 7.88354C18.501 6.86392 17.6744 6.03735 16.6548 6.03735C15.6352 6.03735 14.8086 6.86392 14.8086 7.88354C14.8086 8.90316 15.6352 9.72973 16.6548 9.72973Z" fill="#E84A55"/>
<path d="M11.1988 15.9981C11.2661 15.5941 11.3 15.1853 11.3 14.7757C11.3 13.0764 9.92233 11.6987 8.22298 11.6987C6.52362 11.6987 5.146 13.0764 5.146 14.7757C5.146 15.1853 5.17984 15.5941 5.24717 15.9981L6.22294 21.8528H10.223L11.1988 15.9981Z" fill="#E84A55"/>
<path d="M24.9626 8.49844C24.4528 8.49844 24.0395 8.08514 24.0395 7.57534V0.498291H10.1931C9.68332 0.498291 9.27002 0.911591 9.27002 1.42138V9.9653C11.4837 10.4464 13.147 12.4199 13.147 14.7755C13.147 15.2853 13.1046 15.7986 13.0207 16.3014L12.0955 21.8525H13.4547C15.83 21.8525 17.7625 23.785 17.7625 26.1603V26.468C17.7625 27.4256 17.2728 28.2697 16.5317 28.7672V32.0066H31.1166C31.6264 32.0066 32.0397 31.5933 32.0397 31.0835V8.49844H24.9626ZM12.9624 7.88304C12.9624 5.84707 14.6188 4.19067 16.6548 4.19067C18.6907 4.19067 20.3471 5.84707 20.3471 7.88304C20.3471 9.91902 18.6907 11.5754 16.6548 11.5754C14.6188 11.5754 12.9624 9.91902 12.9624 7.88304ZM27.4242 27.5757H21.2702C20.7604 27.5757 20.3471 27.1624 20.3471 26.6526C20.3471 26.1428 20.7604 25.7295 21.2702 25.7295H27.4242C27.934 25.7295 28.3473 26.1428 28.3473 26.6526C28.3473 27.1624 27.934 27.5757 27.4242 27.5757ZM27.4242 23.8833H21.2702C20.7604 23.8833 20.3471 23.47 20.3471 22.9602C20.3471 22.4504 20.7604 22.0371 21.2702 22.0371H27.4242C27.934 22.0371 28.3473 22.4504 28.3473 22.9602C28.3473 23.47 27.934 23.8833 27.4242 23.8833ZM27.4242 20.191H15.1163C14.6065 20.191 14.1932 19.7777 14.1932 19.2679C14.1932 18.7581 14.6065 18.3448 15.1163 18.3448H27.4242C27.934 18.3448 28.3473 18.7581 28.3473 19.2679C28.3473 19.7777 27.934 20.191 27.4242 20.191ZM27.4242 16.4986H15.1163C14.6065 16.4986 14.1932 16.0853 14.1932 15.5755C14.1932 15.0657 14.6065 14.6524 15.1163 14.6524H27.4242C27.934 14.6524 28.3473 15.0657 28.3473 15.5755C28.3473 16.0853 27.934 16.4986 27.4242 16.4986ZM27.4242 12.8062H22.501C21.9912 12.8062 21.5779 12.3929 21.5779 11.8831C21.5779 11.3733 21.9912 10.96 22.501 10.96H27.4242C27.934 10.96 28.3473 11.3733 28.3473 11.8831C28.3473 12.3929 27.934 12.8062 27.4242 12.8062Z" fill="#4C5562"/>
</g>
</g>
</g>
<defs>
<clipPath id="clip0_1121_76760">
<rect width="32" height="32" fill="white" transform="translate(0.311035 0.393555)"/>
</clipPath>
<clipPath id="clip1_1121_76760">
<rect width="32" height="32" fill="white" transform="translate(0.531738 0.497803)"/>
</clipPath>
<clipPath id="clip2_1121_76760">
<rect width="31.5083" height="31.5083" fill="white" transform="translate(0.531738 0.498047)"/>
</clipPath>
</defs>
</svg>
