<svg width="33" height="32" viewBox="0 0 33 32" fill="none" xmlns="http://www.w3.org/2000/svg">
<path d="M28.5624 15.76H24.7331C24.2684 17.0474 23.7131 18.0045 23.2754 18.6356C25.384 18.3614 27.2474 17.3044 28.5624 15.76Z" fill="#4C5562"/>
<path d="M23.6677 4.92919C23.1528 3.62357 22.5605 2.72854 22.1932 2.24951C21.826 2.72854 21.2337 3.62357 20.7188 4.92919H23.6677Z" fill="#4C5562"/>
<path d="M23.6682 15.76H20.7188C21.2342 17.0656 21.826 17.9607 22.1932 18.4397C22.561 17.9612 23.1533 17.0661 23.6682 15.76Z" fill="#4C5562"/>
<path d="M15.7932 9.85211H18.7619C18.8037 8.34168 19.0268 7.02916 19.3409 5.91357H15.7021C15.7578 6.06816 15.7932 6.2326 15.7932 6.40589V9.85211Z" fill="#4C5562"/>
<path d="M19.6535 15.76H15.8188C15.8636 15.8127 15.9075 15.8668 15.9537 15.9185L16.6179 16.5812C17.8821 17.7125 19.4457 18.4185 21.1113 18.6351C20.6736 18.0045 20.1182 17.0469 19.6535 15.76Z" fill="#4C5562"/>
<path d="M28.5629 4.92909C27.2479 3.38469 25.3845 2.32769 23.2754 2.05347C23.7136 2.68462 24.2689 3.64168 24.7336 4.92909H28.5629Z" fill="#4C5562"/>
<path d="M25.6244 9.85211H30.5377C30.453 8.4111 30.0055 7.06904 29.2803 5.91357H25.0454C25.3595 7.02916 25.5825 8.34168 25.6244 9.85211Z" fill="#4C5562"/>
<path d="M20.3713 14.7757H24.0155C24.3502 13.6823 24.5939 12.3638 24.6397 10.8372H19.7466C19.7924 12.3638 20.0366 13.6823 20.3713 14.7757Z" fill="#4C5562"/>
<path d="M19.3413 14.7757C19.0272 13.6601 18.8042 12.3476 18.7624 10.8372H15.7932V13.2987C15.7932 13.8693 15.4643 14.3602 14.9893 14.6058C15.0237 14.6634 15.0616 14.7191 15.0971 14.7757H19.3413Z" fill="#4C5562"/>
<path d="M24.0159 5.91357H20.3718C20.037 7.00701 19.7929 8.32543 19.7476 9.85211H24.6407C24.5949 8.32543 24.3507 7.00701 24.0159 5.91357Z" fill="#4C5562"/>
<path d="M21.1167 2.04443C19.0475 2.30979 17.1615 3.33529 15.811 4.92892H19.6526C20.1198 3.63511 20.6781 2.67509 21.1167 2.04443Z" fill="#4C5562"/>
<path d="M25.0454 14.7757H29.2803C30.0055 13.6202 30.453 12.2782 30.5377 10.8372H25.6244C25.583 12.3476 25.36 13.6601 25.0454 14.7757Z" fill="#4C5562"/>
<path d="M17.2704 25.6064C17.0804 25.6064 16.8923 25.5808 16.7087 25.5375C16.5728 25.9865 16.2331 26.3434 15.7935 26.5V29.0527C15.7935 29.8669 16.4561 30.5296 17.2704 30.5296H27.1167C27.931 30.5296 28.5937 29.8669 28.5937 29.0527V25.1013C28.1811 25.4139 27.6731 25.6064 27.1167 25.6064H17.2704ZM24.1628 28.5603C24.1628 28.8321 23.9423 29.0527 23.6705 29.0527H20.7166C20.4449 29.0527 20.2243 28.8321 20.2243 28.5603V27.5757C20.2243 27.3039 20.4449 27.0834 20.7166 27.0834H23.6705C23.9423 27.0834 24.1628 27.3039 24.1628 27.5757V28.5603Z" fill="#E84A5F"/>
<path d="M15.7937 17.2369C15.7937 16.9652 15.5726 16.7446 15.3013 16.7446H2.50111C2.22984 16.7446 2.00879 16.9652 2.00879 17.2369V25.114C2.00879 25.3858 2.22984 25.6063 2.50111 25.6063H8.61273L10.5224 27.516C10.6401 27.6337 10.8705 27.5377 10.8705 27.3718V25.6063H15.3013C15.5726 25.6063 15.7937 25.3858 15.7937 25.114V17.2369ZM12.8398 23.6371C12.8398 24.1801 12.3981 24.6217 11.8551 24.6217H6.43964C5.62535 24.6217 4.96269 23.959 4.96269 23.1447V21.1755C4.96269 20.3612 5.62535 19.6985 6.43964 19.6985H6.93196V19.314C6.93196 18.4402 7.64286 17.7293 8.51672 17.7293C8.96916 17.7293 9.36203 18.036 9.47182 18.4756L9.49791 18.5795C9.66284 19.2382 10.2521 19.6985 10.931 19.6985H11.8551C12.3981 19.6985 12.8398 20.1401 12.8398 20.6832V23.6371Z" fill="#4C5562"/>
<path d="M16.7783 17.9625V24.5265C16.9364 24.5827 17.1003 24.6221 17.2706 24.6221H27.117C27.9313 24.6221 28.5939 23.9594 28.5939 23.1451V17.1477C26.9191 18.7246 24.6702 19.6989 22.1938 19.6989C20.2368 19.6989 18.3537 19.084 16.7783 17.9625ZM23.6708 21.1758H24.6554H26.1323V23.1451H24.6554H23.6708H22.6861H21.7015H20.7169H19.7322H18.2553V21.1758H19.7322H20.7169H21.7015H22.6861H23.6708Z" fill="#E84A5F"/>
<path d="M10.8696 20.6782V23.637H11.8543V20.6831H10.9302C10.9095 20.6831 10.8903 20.6787 10.8696 20.6782Z" fill="#E84A5F"/>
<path d="M8.54227 18.8182L8.51618 18.7144C8.51569 18.7144 8.5152 18.7144 8.51471 18.7144C8.18436 18.7144 7.91556 18.9837 7.91556 19.314V20.6831H6.43861C6.16734 20.6831 5.94629 20.9037 5.94629 21.1754V21.6678H6.93092V22.6524H5.94629V23.1447C5.94629 23.4165 6.16734 23.637 6.43861 23.637H9.88482V20.4429C9.2325 20.1357 8.7264 19.5547 8.54227 18.8182Z" fill="#E84A5F"/>
<path d="M2.50111 13.7906H8.61273L10.5224 15.7003C10.6401 15.818 10.8705 15.722 10.8705 15.5561V13.7906H14.3167C14.588 13.7906 14.809 13.5701 14.809 13.2983V6.40589C14.809 6.13413 14.588 5.91357 14.3167 5.91357H2.50111C2.22984 5.91357 2.00879 6.13413 2.00879 6.40589V13.2983C2.00879 13.5701 2.22984 13.7906 2.50111 13.7906ZM6.43964 7.88284L10.3782 9.85211L6.43964 11.8214V7.88284Z" fill="#E84A5F"/>
</svg>
