<svg width="33" height="33" viewBox="0 0 33 33" fill="none" xmlns="http://www.w3.org/2000/svg">
<g clip-path="url(#clip0_1121_76558)">
<g clip-path="url(#clip1_1121_76558)">
<g clip-path="url(#clip2_1121_76558)">
<path d="M15.981 4.65156C9.11316 -1.35536 0.380807 3.92249 0.237616 11.0775C0.201125 12.9009 0.727495 14.6771 1.77525 16.3146H8.56649L9.77442 14.3013C10.1252 13.7168 10.974 13.698 11.3446 14.2807L13.8932 18.2856L17.6082 10.4429C17.9322 9.75858 18.8978 9.73686 19.2551 10.4005L22.4397 16.3146H30.1868C35.9256 7.34531 24.5837 -2.87262 15.981 4.65156Z" fill="#4C5562"/>
<path d="M21.0756 17.675L18.4951 12.8826L14.846 20.5861C14.5356 21.2415 13.6224 21.2985 13.2331 20.6865L10.589 16.5315L9.88051 17.7123C9.71368 17.9903 9.41327 18.1604 9.08904 18.1604H3.23535C3.41885 18.3524 2.44087 17.3764 15.3299 30.1987C15.6899 30.5569 16.2718 30.5569 16.6319 30.1987C29.3226 17.5737 28.5433 18.352 28.7264 18.1604H21.8883C21.5487 18.1604 21.2366 17.974 21.0756 17.675Z" fill="#E84A5F"/>
</g>
</g>
</g>
<defs>
<clipPath id="clip0_1121_76558">
<rect width="32" height="32" fill="white" transform="translate(0.0161133 0.393677)"/>
</clipPath>
<clipPath id="clip1_1121_76558">
<rect width="32" height="32" fill="white" transform="translate(0.23584 0.497803)"/>
</clipPath>
<clipPath id="clip2_1121_76558">
<rect width="31.5083" height="31.5083" fill="white" transform="translate(0.23584 0.497803)"/>
</clipPath>
</defs>
</svg>
