<svg width="33" height="33" viewBox="0 0 33 33" fill="none" xmlns="http://www.w3.org/2000/svg">
<g clip-path="url(#clip0_1121_76629)">
<path fill-rule="evenodd" clip-rule="evenodd" d="M5.73975 29.2438H7.68815C7.88157 28.0646 8.90559 27.1644 10.1395 27.1644C11.3734 27.1644 12.3974 28.0646 12.5909 29.2438H19.0444V26.1611H5.73975V29.2438ZM11.7624 29.6486C11.7624 30.5424 11.0334 31.2715 10.1395 31.2715C9.24566 31.2715 8.51666 30.5425 8.51666 29.6486C8.51666 28.7548 9.24566 28.0258 10.1395 28.0258C11.0334 28.0258 11.7624 28.7548 11.7624 29.6486ZM10.7385 29.6486C10.7385 29.3187 10.4694 29.0496 10.1395 29.0496C9.80961 29.0496 9.54055 29.3187 9.54055 29.6486C9.54055 29.9786 9.80961 30.2476 10.1395 30.2476C10.4694 30.2476 10.7385 29.9786 10.7385 29.6486Z" fill="#4C5562"/>
<path d="M4.92979 12.5369C4.73151 13.4405 4.62695 14.3784 4.62695 15.3397C4.62695 15.5776 4.81988 15.7705 5.05779 15.7705C5.2957 15.7705 5.48857 15.5776 5.48857 15.3397C5.48857 14.439 5.58611 13.5619 5.77116 12.7187C5.96156 11.8509 6.24434 11.0185 6.60853 10.2323C6.70798 10.0167 6.61376 9.76131 6.39819 9.66187C6.18261 9.56242 5.92722 9.65663 5.82778 9.87221C5.43681 10.7162 5.13355 11.6083 4.92979 12.5369Z" fill="#E84A5F"/>
<path d="M28.922 9.69534C29.1376 9.59682 29.3923 9.69177 29.4908 9.90735C29.6802 10.3192 29.8484 10.7421 29.9943 11.1744C30.1378 11.5999 30.2605 12.0378 30.361 12.4872C30.412 12.7186 30.2659 12.9476 30.0345 12.9987C29.8031 13.0498 29.5741 12.9036 29.523 12.6723C29.4304 12.2581 29.3156 11.8492 29.1799 11.447C29.0433 11.0421 28.8862 10.6474 28.71 10.2641C28.6115 10.0485 28.7065 9.79387 28.922 9.69534Z" fill="#E84A5F"/>
<path d="M20.8969 2.72469C21.1265 2.78322 21.265 3.01676 21.2065 3.2463H21.2065C21.1479 3.47584 20.9144 3.61443 20.6848 3.55591C20.2039 3.43252 19.7034 3.33726 19.1851 3.27215C18.6835 3.20913 18.1716 3.17664 17.6515 3.17664C16.6497 3.17664 15.6799 3.29627 14.7554 3.52194C13.8034 3.75431 12.892 4.10102 12.0366 4.54694C11.8257 4.6566 11.5658 4.57451 11.4561 4.36355C11.3465 4.15259 11.4286 3.89271 11.6396 3.78305C12.5494 3.30876 13.526 2.93823 14.5535 2.6874C15.5501 2.44413 16.5878 2.31515 17.6516 2.31515C18.2057 2.31515 18.7524 2.34992 19.2895 2.41736C19.8287 2.48512 20.3654 2.58832 20.8969 2.72469Z" fill="#E84A5F"/>
<path d="M6.79327 4.56891C5.95713 5.40511 5.7663 6.6519 6.22077 7.67549C6.6313 8.60012 8.13219 10.5504 8.76309 11.5124C9.39399 10.5503 10.8949 8.60012 11.3054 7.67549C11.7599 6.6519 11.569 5.40505 10.7329 4.56891C10.1912 4.02718 9.47713 3.75634 8.76309 3.75634C8.04905 3.75634 7.335 4.02718 6.79327 4.56891Z" fill="#E84A5F"/>
<path d="M29.0912 21.3119C29.7221 20.3499 31.2229 18.3996 31.6335 17.4751C32.0879 16.4515 31.8971 15.2047 31.061 14.3685C30.5193 13.8268 29.8052 13.556 29.0912 13.556C28.3771 13.556 27.663 13.8268 27.1213 14.3685C26.2851 15.2047 26.0944 16.4515 26.5488 17.4751C26.9594 18.3996 28.4603 20.3499 29.0912 21.3119Z" fill="#E84A5F"/>
<path d="M21.2916 5.14147V6.28365L21.2917 6.28371C21.2917 6.3863 21.3625 6.47245 21.4631 6.49227L22.0795 6.61381L22.5236 7.68577L22.1736 8.20762C22.1164 8.29279 22.1273 8.40375 22.1998 8.47631L23.0075 9.28395C23.08 9.35651 23.191 9.36727 23.2762 9.31017L23.7981 8.96019L24.87 9.40426L24.9916 10.0207C25.0114 10.1213 25.0975 10.1922 25.2001 10.1922H26.3423C26.4448 10.1922 26.531 10.1213 26.5509 10.0207L26.6724 9.40432L27.7444 8.96019L28.2662 9.31017C28.3514 9.36727 28.4624 9.35651 28.5349 9.28395L29.3425 8.47631C29.4151 8.40375 29.4259 8.29273 29.3688 8.20756L29.0188 7.68571L29.463 6.61375L30.0794 6.49221C30.18 6.47239 30.2508 6.38624 30.2508 6.28365V5.14147C30.2508 5.03889 30.18 4.95273 30.0794 4.93292L29.463 4.81138L29.0188 3.73942L29.3688 3.21756C29.4259 3.13233 29.4151 3.02137 29.3425 2.94882L28.5349 2.14117C28.4624 2.06862 28.3514 2.05779 28.2662 2.1149L27.7444 2.46487L26.6723 2.02074L26.5508 1.40436C26.5309 1.30374 26.4448 1.23291 26.3422 1.23291H25.2001C25.0975 1.23291 25.0113 1.30374 24.9915 1.40436L24.87 2.02074L23.798 2.46487L23.2762 2.1149C23.1909 2.05779 23.08 2.06868 23.0074 2.14117L22.1998 2.94882C22.1273 3.02131 22.1164 3.13233 22.1736 3.2175L22.5235 3.73942L22.0795 4.81138L21.4631 4.93292C21.3625 4.95273 21.2916 5.03889 21.2916 5.14147Z" fill="#E84A5F"/>
<path d="M9.61573 7.39141C9.1447 7.86243 8.38099 7.86243 7.90991 7.39141C7.43888 6.92038 7.43888 6.15661 7.90991 5.68559C8.38093 5.2145 9.1447 5.2145 9.61573 5.68559C10.0868 6.15661 10.0868 6.92032 9.61573 7.39141Z" fill="white"/>
<path d="M25.7707 7.86152C24.5841 7.86152 23.6221 6.89953 23.6221 5.71286C23.6221 4.5262 24.5841 3.56421 25.7707 3.56421C26.9574 3.56421 27.9194 4.5262 27.9194 5.71286C27.9194 6.89953 26.9574 7.86152 25.7707 7.86152Z" fill="white"/>
<path d="M28.2376 15.4853C28.7086 15.0143 29.4723 15.0143 29.9434 15.4853C30.4144 15.9564 30.4144 16.7201 29.9434 17.1912C29.4724 17.6622 28.7086 17.6622 28.2376 17.1912C27.7665 16.7201 27.7665 15.9564 28.2376 15.4853Z" fill="white"/>
<path d="M27.4589 24.5551C27.4589 24.2202 27.3653 23.9325 27.1683 23.6618H27.1684L24.514 20.0132C24.3199 19.7464 24.036 19.6018 23.706 19.6018H19.9067V29.2438H20.9206C21.1141 28.0645 22.138 27.1643 23.372 27.1643C24.6059 27.1643 25.6299 28.0645 25.8233 29.2438H27.4589V28.057H26.552V27.1955H27.4589V24.5551Z" fill="#4C5562"/>
<path d="M23.372 31.2716C24.2658 31.2716 24.9948 30.5425 24.9948 29.6487C24.9948 28.7548 24.2658 28.0258 23.372 28.0258C22.4781 28.0258 21.7491 28.7548 21.7491 29.6487C21.7491 30.5426 22.4781 31.2716 23.372 31.2716Z" fill="#4C5562"/>
<path d="M21.0552 25.1876H22.2076V26.0492H21.0552V25.1876Z" fill="white"/>
<path d="M23.6291 20.7512L26.2385 24.3381H21.0552V20.7512H23.6291Z" fill="white"/>
<path d="M23.3719 29.0498C23.7018 29.0498 23.9709 29.3189 23.9709 29.6488C23.9709 29.9787 23.7018 30.2477 23.3719 30.2477C23.042 30.2477 22.7729 29.9787 22.7729 29.6488C22.7729 29.3189 23.042 29.0498 23.3719 29.0498Z" fill="white"/>
<path d="M5.44182 17.8916H1.92508C1.68717 17.8916 1.49431 17.6987 1.49431 17.4608C1.49431 17.2229 1.68717 17.03 1.92508 17.03H5.44182C5.67974 17.03 5.8726 17.2229 5.8726 17.4608C5.8726 17.6987 5.67974 17.8916 5.44182 17.8916Z" fill="#4C5562"/>
<path d="M2.70423 19.9239C2.70423 19.686 2.8971 19.4931 3.13501 19.4931H5.62595C5.86386 19.4931 6.05673 19.686 6.05673 19.9239C6.05673 20.1618 5.86386 20.3546 5.62595 20.3546H3.13501C2.8971 20.3546 2.70423 20.1618 2.70423 19.9239Z" fill="#4C5562"/>
<path d="M3.67404 21.7162C3.91195 21.7162 4.10481 21.9091 4.10481 22.147C4.10481 22.3849 3.91195 22.5778 3.67404 22.5778H1.71886C1.48095 22.5778 1.28809 22.3849 1.28809 22.147C1.28809 21.9091 1.48095 21.7162 1.71886 21.7162H3.67404Z" fill="#4C5562"/>
<path d="M5.90516 23.8434C6.14307 23.8434 6.33593 24.0363 6.33593 24.2742C6.33593 24.5121 6.14307 24.7049 5.90516 24.7049H3.8869C3.64899 24.7049 3.45613 24.5121 3.45613 24.2742C3.45613 24.0363 3.64899 23.8434 3.8869 23.8434H5.90516Z" fill="#4C5562"/>
<path d="M10.7026 14.8096V17.9453H10.7025C10.7025 18.1831 10.8956 18.3759 11.1332 18.3759H14.1467C14.3842 18.3759 14.5776 18.1831 14.5776 17.9453V14.8096H17.3238C17.633 14.8096 17.8852 15.0618 17.8852 15.371V24.7383C17.8852 25.0475 17.633 25.2997 17.3238 25.2997H7.95645C7.64721 25.2997 7.39502 25.0475 7.39502 24.7383V15.371C7.39502 15.0618 7.64721 14.8096 7.95645 14.8096H10.7026Z" fill="#E84A5F"/>
<path d="M11.564 17.5145V14.8096H13.7159V17.5145H11.564Z" fill="#E84A5F"/>
</g>
<defs>
<clipPath id="clip0_1121_76629">
<rect width="32" height="32" fill="white" transform="translate(0.606445 0.393799)"/>
</clipPath>
</defs>
</svg>
