<svg width="33" height="33" viewBox="0 0 33 33" fill="none" xmlns="http://www.w3.org/2000/svg">
<g clip-path="url(#clip0_1121_76674)">
<g clip-path="url(#clip1_1121_76674)">
<path d="M28.116 16.9688C28.0683 15.2979 26.4928 13.7225 24.4878 13.818C23.7717 11.5742 21.0982 10.5717 19.0932 11.7175C18.0429 10.142 15.8946 9.71238 14.3192 10.8104C12.0277 8.32793 7.77883 9.6169 7.34917 13.1019C5.24862 13.0064 3.62547 14.8205 3.81643 16.8256C0.283683 17.8759 0.856561 23.4137 4.81896 23.4137H7.77883V22.984C7.77883 22.3157 8.25623 21.6951 8.92459 21.5996L9.40199 21.5041C9.44973 21.4564 9.44972 21.3609 9.49746 21.3132L9.21103 20.9312C8.82911 20.3584 8.87685 19.5468 9.40199 19.0694L10.8342 17.6372C11.1206 17.3508 11.4548 17.2075 11.8367 17.2075C12.1232 17.2075 12.4096 17.303 12.6483 17.4462L13.0779 17.7327C13.1257 17.6849 13.2212 17.6849 13.2689 17.6372L13.3644 17.1598C13.4599 16.4914 14.0805 15.9663 14.7966 15.9663H16.8494C17.5178 15.9663 18.1384 16.4437 18.2816 17.1598L18.3771 17.6372C18.4248 17.6849 18.5203 17.6849 18.568 17.7327L18.9499 17.4462C19.1886 17.303 19.4751 17.2075 19.7615 17.2075C20.1434 17.2075 20.5254 17.3508 20.7641 17.6372L22.244 19.0694C22.7214 19.5468 22.8169 20.3584 22.435 20.9312L22.1485 21.3132C22.1963 21.3609 22.1963 21.4564 22.244 21.5041L22.7214 21.5996C23.3897 21.7428 23.9149 22.3157 23.9149 23.0318V23.4614H26.8748C28.8798 23.4614 30.0256 21.9815 30.2165 20.5493C30.3598 19.2126 29.7869 17.6372 28.116 16.9688Z" fill="#4C5562"/>
<path d="M1.85913 15.202C1.85913 15.3453 1.90687 15.4407 2.00235 15.5362L2.71845 16.2523C2.76619 16.2523 2.76619 16.2046 2.81393 16.2046C2.81393 15.8704 2.90941 15.5362 3.00489 15.202L2.81393 15.0111V8.13655C3.48229 7.9456 3.95969 7.32498 3.95969 6.56114C3.95969 5.65409 3.24359 4.93799 2.33653 4.93799C1.42948 4.93799 0.713379 5.70183 0.713379 6.60888C0.713379 7.37272 1.19078 7.9456 1.85913 8.18429V15.202ZM1.66818 6.60888C1.66818 6.22696 1.95461 5.94052 2.33653 5.94052C2.71845 5.94052 3.00489 6.22696 3.00489 6.60888C3.00489 6.9908 2.67071 7.27724 2.33653 7.27724C1.95461 7.27724 1.66818 6.94306 1.66818 6.60888Z" fill="#E84A5F"/>
<path d="M5.29699 4.60384V11.6693C5.29699 11.8126 5.34473 11.908 5.44021 12.0035L5.86986 12.4332C6.10856 12.3377 6.34726 12.2899 6.58596 12.2422C6.6337 12.099 6.6337 12.0035 6.68144 11.908L6.25178 11.4784V4.60384C6.92014 4.36514 7.39754 3.74452 7.39754 3.02843C7.39754 2.12137 6.68144 1.40527 5.77439 1.40527C4.86733 1.40527 4.15123 2.12137 4.15123 3.02843C4.10349 3.74452 4.58089 4.36514 5.29699 4.60384ZM5.77439 2.36007C6.1563 2.36007 6.44274 2.64651 6.44274 3.02843C6.44274 3.41035 6.10856 3.69678 5.77439 3.69678C5.39247 3.69678 5.10603 3.41035 5.10603 3.02843C5.05829 2.64651 5.39247 2.36007 5.77439 2.36007Z" fill="#E84A5F"/>
<path d="M29.6432 5.0332C28.7361 5.0332 28.02 5.7493 28.02 6.65636C28.02 7.37245 28.4974 7.99307 29.1658 8.23177V15.1063L28.7361 15.536C28.8793 15.7747 28.9271 16.0611 29.0226 16.3475C29.0703 16.3953 29.118 16.3953 29.1658 16.443L29.9774 15.6314C30.0728 15.536 30.1206 15.4405 30.1206 15.2973V8.23177C30.7889 8.04081 31.2663 7.42019 31.2663 6.65636C31.2663 5.7493 30.5502 5.0332 29.6432 5.0332ZM29.6432 7.32471C29.2613 7.32471 28.9748 7.03827 28.9748 6.65636C28.9748 6.27444 29.2613 5.988 29.6432 5.988C30.0251 5.988 30.3115 6.27444 30.3115 6.65636C30.3115 7.03827 29.9774 7.32471 29.6432 7.32471Z" fill="#E84A5F"/>
<path d="M25.634 5.12899V12.1467L25.0611 12.7674C25.1089 12.8151 25.1089 12.8628 25.1566 12.9106C25.4908 12.9583 25.7772 13.0061 26.1114 13.1015L26.4933 12.6719C26.5888 12.5764 26.6366 12.4809 26.6366 12.3377V5.12899C27.3049 4.93803 27.7823 4.31741 27.7823 3.55357C27.7823 2.64652 27.0662 1.93042 26.1592 1.93042C25.2521 1.93042 24.536 2.64652 24.536 3.55357C24.4883 4.31741 24.9657 4.93803 25.634 5.12899ZM26.1114 2.88522C26.4933 2.88522 26.7798 3.17165 26.7798 3.55357C26.7798 3.93549 26.4456 4.22193 26.1114 4.22193C25.7772 4.22193 25.4431 3.88775 25.4431 3.55357C25.4431 3.21939 25.7295 2.88522 26.1114 2.88522Z" fill="#E84A5F"/>
<path d="M18.4246 5.03304V9.9025C18.7587 10.0935 19.0452 10.3322 19.3316 10.6186H19.3794V5.03304C20.0477 4.84208 20.5251 4.22146 20.5251 3.45763C20.5251 2.55057 19.809 1.83447 18.902 1.83447C17.9949 1.83447 17.2788 2.55057 17.2788 3.45763C17.2788 4.17372 17.7562 4.79434 18.4246 5.03304ZM18.902 2.74153C19.2839 2.74153 19.5703 3.07571 19.5703 3.40989C19.5703 3.74406 19.2839 4.07824 18.902 4.07824C18.52 4.07824 18.2336 3.74406 18.2336 3.40989C18.2336 3.07571 18.52 2.74153 18.902 2.74153Z" fill="#4C5562"/>
<path d="M13.7459 5.03304V9.23414C13.9846 9.37736 14.2233 9.52058 14.4142 9.6638L14.7006 9.52058V5.03304C15.369 4.84208 15.8464 4.22146 15.8464 3.45763C15.8464 2.55057 15.1303 1.83447 14.2233 1.83447C13.3162 1.83447 12.6001 2.55057 12.6001 3.45763C12.6001 4.22146 13.0775 4.84208 13.7459 5.03304ZM14.2233 2.78927C14.6052 2.78927 14.8916 3.07571 14.8916 3.45763C14.8916 3.83954 14.6052 4.12598 14.2233 4.12598C13.8413 4.12598 13.5549 3.83954 13.5549 3.45763C13.5549 3.07571 13.8413 2.78927 14.2233 2.78927Z" fill="#4C5562"/>
<path d="M22.5298 22.5543L21.4795 22.3633C21.3841 21.9814 21.1931 21.5995 21.0022 21.2176L21.6228 20.3583C21.766 20.1673 21.7182 19.9286 21.575 19.7377L20.0951 18.3055C19.9519 18.1622 19.6654 18.1145 19.4745 18.2577L18.6152 18.8783C18.281 18.6874 17.8991 18.5442 17.4694 18.4009L17.2784 17.3507C17.2307 17.112 17.0397 16.9688 16.801 16.9688H14.7482C14.5095 16.9688 14.3186 17.1597 14.2708 17.3507L14.0799 18.4009C13.698 18.4964 13.316 18.6874 12.9341 18.8783L12.1703 18.2577C11.9793 18.1145 11.7406 18.1622 11.5497 18.3055L10.1175 19.7377C9.97426 19.8809 9.92652 20.1673 10.0697 20.3583L10.6904 21.2176C10.4994 21.5995 10.3562 21.9337 10.213 22.3633L9.16268 22.5543C8.92398 22.602 8.78076 22.793 8.78076 23.0317V25.0845C8.78076 25.3232 8.97172 25.5142 9.16268 25.5619L10.1652 25.7529C10.3084 26.1348 10.4517 26.5167 10.6426 26.8986L10.022 27.7102C9.87878 27.9012 9.92652 28.1399 10.0697 28.3308L11.5497 29.8108C11.6929 29.954 11.9793 30.0017 12.1703 29.8585L13.0296 29.2379C13.4115 29.4288 13.7934 29.5721 14.1754 29.7153L14.3663 30.7656C14.4141 31.0043 14.605 31.1475 14.8437 31.1475H16.8965C17.1352 31.1475 17.3262 30.9565 17.3739 30.7656L17.5649 29.7153C17.9468 29.5721 18.3287 29.4288 18.6629 29.2379L19.5222 29.8585C19.7132 30.0017 19.9519 29.954 20.1428 29.8108L21.6228 28.3308C21.766 28.1876 21.8137 27.9012 21.6705 27.7102L21.0499 26.8509C21.2408 26.469 21.3841 26.1348 21.5273 25.7051L22.5776 25.5142C22.8163 25.4664 22.9595 25.2755 22.9595 25.0368V22.984C22.9117 22.793 22.7208 22.602 22.5298 22.5543ZM15.8463 27.1373C14.1276 27.1373 12.7432 25.7529 12.7432 24.0342C12.7432 22.3156 14.1276 20.9312 15.8463 20.9312C17.5649 20.9312 18.9493 22.3156 18.9493 24.0342C18.9016 25.7529 17.5171 27.1373 15.8463 27.1373Z" fill="#E84A5F"/>
</g>
</g>
<defs>
<clipPath id="clip0_1121_76674">
<rect width="32" height="32" fill="white" transform="translate(0.23584 0.498047)"/>
</clipPath>
<clipPath id="clip1_1121_76674">
<rect width="31.5083" height="31.5083" fill="white" transform="translate(0.23584 0.498047)"/>
</clipPath>
</defs>
</svg>
