<svg width="33" height="33" viewBox="0 0 33 33" fill="none" xmlns="http://www.w3.org/2000/svg">
<g clip-path="url(#clip0_1121_76523)">
<g clip-path="url(#clip1_1121_76523)">
<path d="M19.7057 28.7778C19.4953 28.3866 19.3754 27.939 19.3754 27.4641C19.3754 27.2054 19.4109 26.9543 19.4775 26.7165C19.5827 26.3405 19.7653 25.9963 20.0069 25.7027H13.7418V15.4008C13.7418 15.1208 13.513 14.8939 13.2331 14.8939H6.52562C6.24568 14.8939 6.01878 15.1209 6.01878 15.4008V25.7027H3.96638V12.2801C3.8009 12.2991 3.6316 12.3093 3.45978 12.3093C3.43824 12.3093 3.41732 12.3093 3.39578 12.3087C3.378 12.308 3.36027 12.308 3.34187 12.3074C3.21129 12.3042 3.08131 12.2947 2.95257 12.2788V25.7027H2.25318C1.97354 25.7027 1.74658 25.9296 1.74658 26.2093V29.285C1.74658 29.5647 1.9736 29.7916 2.25318 29.7916H20.6359C20.2479 29.5374 19.9264 29.1887 19.7057 28.7778Z" fill="#4C5562"/>
<path d="M9.68153 11.2965C8.27012 11.2965 7.07748 10.3955 7.07748 9.33033V7.5271H12.2842V9.33033C12.2842 10.3955 11.0923 11.2965 9.68153 11.2965Z" fill="#E84A5F"/>
<path d="M18.5061 9.33033C18.5061 10.3955 17.3134 11.2965 15.9021 11.2965C14.49 11.2965 13.2974 10.3955 13.2974 9.33033V7.5271H18.5061V9.33033Z" fill="#E84A5F"/>
<path d="M3.45963 11.2965C3.44701 11.2965 3.43427 11.2959 3.4216 11.2959C3.40258 11.2952 3.38295 11.2946 3.36264 11.2946C2.74448 11.2768 2.15037 11.0879 1.68815 10.762C1.16002 10.3886 0.856934 9.86671 0.856934 9.33033V7.5271H6.06361V9.33033C6.06361 10.3955 4.87104 11.2965 3.45963 11.2965Z" fill="#E84A5F"/>
<path d="M24.7317 7.5271V9.33033C24.7317 10.3955 23.5391 11.2965 22.1277 11.2965C20.7163 11.2965 19.5237 10.3955 19.5237 9.33033V7.5271H24.7317Z" fill="#E84A5F"/>
<path d="M30.9523 7.5271V9.33033C30.9523 9.86677 30.6492 10.3886 30.1204 10.762C29.6588 11.0879 29.064 11.2768 28.4446 11.2946C28.4272 11.2946 28.4097 11.2952 28.3923 11.2958L28.3875 11.2959C28.3749 11.2959 28.3628 11.2965 28.3501 11.2965C26.9382 11.2965 25.7455 10.3955 25.7455 9.33033V7.5271H30.9523Z" fill="#E84A5F"/>
<path d="M12.5886 4.7585L12.3483 6.51355H7.29813L9.24905 1.2345H13.0692L12.5886 4.7585Z" fill="#4C5562"/>
<path d="M18.2163 4.8961L18.4363 6.51355L13.3717 6.51361L13.5929 4.89616L14.0925 1.23456H17.7154H17.7167L18.0597 3.75042L18.0945 4.00784L18.2163 4.8961Z" fill="#4C5562"/>
<path d="M4.67759 1.2345H8.16867L6.21706 6.51355H1.15869L3.30802 2.07587C3.56298 1.54896 4.07524 1.2345 4.67759 1.2345Z" fill="#4C5562"/>
<path d="M19.459 6.51355L19.0634 3.61153L19.0329 3.38771L18.7381 1.2345H18.74H22.5582L24.5111 6.51355H19.459Z" fill="#4C5562"/>
<path d="M28.501 2.07593L30.6504 6.51355L25.592 6.51361L23.6392 1.23456H27.1296C27.7332 1.23456 28.2461 1.54903 28.501 2.07593Z" fill="#4C5562"/>
<path d="M28.1398 12.1722C28.1569 12.1716 28.174 12.1716 28.1912 12.1709C28.3224 12.1678 28.453 12.1582 28.5824 12.1423V18.1156H27.5685V12.1436C27.734 12.1626 27.9033 12.1727 28.0757 12.1727C28.0967 12.1728 28.1183 12.1728 28.1398 12.1722ZM25.5161 18.1157V15.2644C25.5161 14.9842 25.2891 14.7572 25.0095 14.7572H15.7177C15.4374 14.7572 15.2104 14.9842 15.2104 15.2644V19.9912C15.2104 20.2715 15.4375 20.4978 15.7177 20.4978H18.917L18.7737 19.9804L18.7725 19.9747L18.6399 19.496H18.1257C18.0635 19.496 18.0021 19.4922 17.9418 19.4846H16.2242V15.771H24.5022V18.1157H25.5161ZM21.129 27.3277C21.129 27.7429 21.4668 28.0807 21.882 28.0807H30.5251C30.8051 28.0807 31.032 28.3077 31.032 28.5876C31.032 28.8674 30.805 29.0944 30.5251 29.0944H29.5863C29.6436 29.2546 29.675 29.427 29.675 29.6066C29.675 30.448 28.9905 31.1325 28.1491 31.1325C27.3077 31.1325 26.6232 30.448 26.6232 29.6066C26.6232 29.427 26.6546 29.2546 26.7118 29.0944H24.9996C25.0569 29.2546 25.0883 29.427 25.0883 29.6066C25.0883 30.448 24.4037 31.1325 23.5623 31.1325C22.7209 31.1325 22.0364 30.448 22.0364 29.6066C22.0364 29.427 22.0678 29.2546 22.125 29.0944H21.8818C20.9076 29.0944 20.1151 28.3018 20.1151 27.3277C20.1151 26.5243 20.6553 25.8451 21.3918 25.6323L19.7747 19.794C19.774 19.7921 19.7734 19.7902 19.7727 19.7876L19.762 19.7483C19.7613 19.7452 19.7607 19.742 19.7601 19.7395L19.4113 18.4815H18.1255C17.8453 18.4815 17.6183 18.2546 17.6183 17.9749C17.6183 17.6947 17.8453 17.4677 18.1255 17.4677H19.7968C20.0244 17.4677 20.2248 17.6199 20.2857 17.8393L20.6433 19.1302H30.9904C31.3246 19.1302 31.6302 19.2855 31.8287 19.5569C32.0271 19.8315 32.081 20.1701 31.9783 20.4883L30.1249 26.2131C30.0571 26.4217 29.8637 26.5631 29.6443 26.5637L28.6208 26.5668C28.5891 26.5731 28.5564 26.5765 28.5229 26.5765H25.494L22.0434 26.5872H22.0421H22.0408C22.0269 26.5872 22.0136 26.5865 22.0002 26.5852C21.9863 26.5846 21.973 26.5827 21.959 26.5802C21.953 26.5793 21.9471 26.5777 21.9412 26.5765H21.8819C21.4667 26.5764 21.129 26.9134 21.129 27.3277ZM27.4626 24.5474C27.4626 24.827 27.6896 25.054 27.9692 25.054C28.2495 25.054 28.4764 24.8269 28.4764 24.5474V21.1685C28.4764 20.8883 28.2494 20.6613 27.9692 20.6613C27.6896 20.6613 27.4626 20.8883 27.4626 21.1685V24.5474ZM25.4819 24.5474C25.4819 24.827 25.7089 25.054 25.9891 25.054C26.2687 25.054 26.4957 24.8269 26.4957 24.5474V21.1685C26.4957 20.8883 26.2687 20.6613 25.9891 20.6613C25.7089 20.6613 25.4819 20.8883 25.4819 21.1685V24.5474ZM23.5011 24.5474C23.5011 24.827 23.7281 25.054 24.0083 25.054C24.288 25.054 24.5149 24.8269 24.5149 24.5474V21.1685C24.5149 20.8883 24.2879 20.6613 24.0083 20.6613C23.7281 20.6613 23.5011 20.8883 23.5011 21.1685V24.5474Z" fill="#E84A5F"/>
</g>
</g>
<defs>
<clipPath id="clip0_1121_76523">
<rect width="32" height="32" fill="white" transform="translate(0.606445 0.393555)"/>
</clipPath>
<clipPath id="clip1_1121_76523">
<rect width="31.5083" height="31.5083" fill="white" transform="translate(0.826172 0.497681)"/>
</clipPath>
</defs>
</svg>
