<svg width="33" height="32" viewBox="0 0 33 32" fill="none" xmlns="http://www.w3.org/2000/svg">
<g clip-path="url(#clip0_1121_76653)">
<path d="M17.769 12.6077L16.563 12.3042V14.8998L17.1547 15.0487C17.8301 15.2187 18.5131 14.8082 18.6824 14.1354C18.852 13.4614 18.4431 12.7774 17.769 12.6077Z" fill="#4C5562"/>
<path d="M15.0714 16.9247C15.4356 16.3327 15.2509 15.5576 14.6589 15.1933L10.6826 12.747L9.55095 9.49805L11.0919 11.946L13.6691 13.5315C13.6698 12.1353 13.6672 11.8432 13.6707 11.5862L13.4444 11.5292L11.7561 9.58439L11.7902 9.07389C11.8589 8.04711 11.0821 7.15907 10.0553 7.09041L6.73984 6.86872C5.71306 6.80006 4.82502 7.57683 4.75636 8.60361L4.11846 18.1425L4.13638 18.1437C4.13804 18.2045 4.31643 21.7697 4.4032 23.5145L1.4608 29.8603C1.10992 30.617 1.43894 31.5149 2.19563 31.8658C2.95226 32.2166 3.85021 31.8877 4.2011 31.131L7.30034 24.4469C7.40336 24.2248 7.45078 23.981 7.43858 23.7364L7.16991 18.3466L7.85074 18.3921L9.52188 23.3617L10.1561 30.627C10.2284 31.4554 10.9584 32.073 11.792 32.0002C12.6229 31.9277 13.2377 31.1953 13.1652 30.3644L12.5153 22.9196C12.5049 22.8005 12.4804 22.683 12.4423 22.5696L11.1108 18.6101L11.1523 18.6129L11.2531 17.1062C10.3775 16.5676 9.20469 15.8461 8.19546 15.2251C7.85449 15.0153 7.64851 14.6622 7.60608 14.2931L7.17385 10.3261L8.45292 13.9982C8.54825 14.2719 8.73514 14.5043 8.98195 14.6561L13.3399 17.3373C13.9294 17.6998 14.7056 17.5194 15.0714 16.9247Z" fill="#4C5562"/>
<path d="M9.20188 6.01255C10.7222 5.91201 11.8732 4.59803 11.7727 3.07768C11.6721 1.55734 10.3581 0.406371 8.83778 0.506915C7.31744 0.607458 6.16647 1.92144 6.26701 3.44178C6.36755 4.96213 7.68154 6.1131 9.20188 6.01255Z" fill="#4C5562"/>
<path d="M21.0292 14.7132C20.7333 14.3703 20.2154 14.3323 19.8726 14.6283L18.6261 15.7042C18.2832 16.0001 18.2453 16.518 18.5412 16.8608L18.9455 17.3293C18.8639 17.2886 18.7721 17.2651 18.6746 17.2651C18.3385 17.2651 18.066 17.5376 18.066 17.8738V19.4389H17.368C17.0283 19.4389 16.7529 19.7143 16.7529 20.054V25.9483C16.7529 26.288 17.0283 26.5634 17.368 26.5634H19.9812C20.3209 26.5634 20.5963 26.288 20.5963 25.9483V20.0539C20.5963 19.7143 20.3209 19.4389 19.9812 19.4389H19.2832V17.8737C19.2832 17.8082 19.2726 17.7451 19.2534 17.686L22.1248 21.0124C22.4207 21.3552 22.9385 21.3932 23.2814 21.0973L24.5279 20.0214C24.8707 19.7254 24.9087 19.2075 24.6128 18.8647L21.0292 14.7132Z" fill="#E84A5F"/>
<path d="M21.8271 23.488V25.7433C21.8271 26.1962 22.1943 26.5633 22.6472 26.5633H28.1315C28.5844 26.5633 28.9515 26.1962 28.9515 25.7433V23.488C28.9515 23.0351 28.5844 22.668 28.1315 22.668H22.6472C22.1943 22.6679 21.8271 23.0351 21.8271 23.488Z" fill="#E84A5F"/>
<path d="M28.1312 21.4252C28.5841 21.4252 28.9512 21.058 28.9512 20.6051V15.1208C28.9512 14.6679 28.5841 14.3008 28.1312 14.3008H26.4846C26.0317 14.3008 25.6646 14.6679 25.6646 15.1208V20.6051C25.6646 21.058 26.0317 21.4252 26.4846 21.4252H28.1312Z" fill="#E84A5F"/>
<path d="M23.2911 3.33413C23.6829 3.17045 23.954 2.78428 23.954 2.33912C23.954 1.74371 23.4714 1.26099 22.8759 1.26099C22.2804 1.26099 21.7977 1.74365 21.7977 2.33912C21.7977 2.78447 22.069 3.17051 22.4606 3.33413C18.0343 3.55126 14.5 7.22036 14.5 11.6996V14.0326L15.1284 14.4192C15.3706 14.5682 15.5723 14.7575 15.7316 14.9729V11.6996C15.7316 7.76023 18.9365 4.55537 22.8759 4.55537C26.8153 4.55537 30.0201 7.76023 30.0201 11.6996V27.5459H15.7317V17.5361C15.421 17.9572 14.9803 18.2364 14.5001 18.3511V28.1617C14.5001 28.5018 14.7758 28.7775 15.1159 28.7775H18.5142C18.0729 29.1179 17.8105 29.6427 17.8105 30.2046C17.8105 31.1981 18.6188 32.0063 19.6122 32.0063C20.6057 32.0063 21.4139 31.1981 21.4139 30.2046C21.4139 29.6428 21.1516 29.118 20.7102 28.7775H25.0416C24.6003 29.1179 24.338 29.6427 24.338 30.2046C24.338 31.1981 25.1462 32.0063 26.1397 32.0063C27.1331 32.0063 27.9414 31.1981 27.9414 30.2046C27.9414 29.6428 27.679 29.118 27.2376 28.7775H30.636C30.9761 28.7775 31.2518 28.5018 31.2518 28.1617V11.6996C31.2518 7.22036 27.7175 3.55126 23.2911 3.33413ZM19.6122 30.7747C19.2978 30.7747 19.0421 30.519 19.0421 30.2046C19.0421 29.8902 19.2978 29.6345 19.6122 29.6345C19.9265 29.6345 20.1823 29.8902 20.1823 30.2046C20.1823 30.519 19.9265 30.7747 19.6122 30.7747ZM26.1396 30.7747C25.8252 30.7747 25.5695 30.519 25.5695 30.2046C25.5695 29.8902 25.8252 29.6345 26.1396 29.6345C26.454 29.6345 26.7097 29.8902 26.7097 30.2046C26.7098 30.519 26.454 30.7747 26.1396 30.7747Z" fill="#E84A5F"/>
</g>
<defs>
<clipPath id="clip0_1121_76653">
<rect width="31.5083" height="31.5083" fill="white" transform="translate(0.53125 0.498047)"/>
</clipPath>
</defs>
</svg>
