<svg width="33" height="33" viewBox="0 0 33 33" fill="none" xmlns="http://www.w3.org/2000/svg">
<g clip-path="url(#clip0_1121_76704)">
<g clip-path="url(#clip1_1121_76704)">
<path d="M31.7723 0.498779H27.2711C26.9604 0.498779 26.7085 0.750685 26.7085 1.06143V10.0638C26.7085 10.3745 26.9604 10.6264 27.2711 10.6264H31.7723C32.0831 10.6264 32.335 10.3745 32.335 10.0638V1.06143C32.335 0.750685 32.0831 0.498779 31.7723 0.498779Z" fill="#4C5562"/>
<path d="M12.0516 8.47974C12.4219 8.88365 12.8915 9.18339 13.4138 9.34903L11.9374 9.90211C11.7096 9.98772 11.454 9.95304 11.2572 9.80984L10.73 9.41598C11.1419 9.06528 11.5842 8.75196 12.0516 8.47974Z" fill="#E84A5F"/>
<path d="M8.23635 12.877H9.90797C10.3296 12.8778 10.7097 13.1311 10.8728 13.5199C11.036 13.9087 10.9505 14.3574 10.6557 14.6589C10.4565 14.8553 10.1878 14.9651 9.90797 14.9644C9.25272 14.9674 8.65497 15.3391 8.36238 15.9254C8.25979 16.127 8.0524 16.2537 7.82618 16.2528L7.57861 16.2528C7.57886 15.0957 7.80218 13.9495 8.23635 12.877Z" fill="#E84A5F"/>
<path d="M5.89 21.8794H1.38882C1.07808 21.8794 0.826172 22.1313 0.826172 22.442V31.4444C0.826172 31.7551 1.07808 32.0071 1.38882 32.0071H5.89C6.20074 32.0071 6.45265 31.7551 6.45265 31.4444V22.442C6.45265 22.1313 6.20074 21.8794 5.89 21.8794Z" fill="#E84A5F"/>
<path d="M22.1152 27.3831L31.3713 24.4162C31.6703 24.3116 32.0026 24.4163 32.1877 24.6734C32.3126 24.8382 32.3619 25.0481 32.3234 25.2513C32.2849 25.4545 32.1622 25.6319 31.9857 25.7396L23.0739 31.0425C22.6435 31.3051 22.149 31.4441 21.6448 31.4443H7.57861V22.4419H10.5888C11.4413 22.4427 12.2683 22.7329 12.9345 23.265C13.8316 23.9009 14.9213 24.2065 16.0183 24.1298H18.8316C20.0615 24.1298 21.1767 25.4087 20.4368 26.3804H17.1436C16.0523 26.3915 14.994 26.7559 14.1273 27.4191C13.9497 27.5253 13.8447 27.7204 13.8539 27.9271C13.8632 28.1339 13.9852 28.3188 14.1715 28.4087C14.3579 28.4987 14.5786 28.479 14.7462 28.3576C15.4317 27.821 16.2732 27.522 17.1436 27.5057H21.3472C21.608 27.5054 21.8672 27.464 22.1152 27.3831Z" fill="#E84A5F"/>
<path d="M17.5755 23.0046H16.5808V21.4742C16.5795 20.4554 15.754 19.6299 14.7353 19.6287H13.9082C13.5151 19.6299 13.1941 19.315 13.188 18.922L13.2049 18.177C13.2058 17.4254 13.8149 16.8164 14.5665 16.8154H17.4697C18.2213 16.8164 18.8304 17.4254 18.8313 18.177V19.6118C18.8314 19.9162 18.7704 20.2175 18.6519 20.498L17.5755 23.0046Z" fill="#E84A5F"/>
<path d="M21.109 24.0258C20.5233 23.3852 19.6987 23.0156 18.8308 23.0046H18.7999L19.6866 20.9385C19.8644 20.5188 19.956 20.0676 19.9561 19.6118V18.1771C19.9545 16.8042 18.842 15.6917 17.4692 15.6901H14.5659C13.1968 15.6901 12.0852 16.7967 12.079 18.1658L12.0622 18.9107C12.0643 19.9287 12.8897 20.753 13.9076 20.754H14.7347C15.1324 20.7543 15.4546 21.0765 15.4549 21.4742V22.9798C15.1999 22.965 14.9464 22.9309 14.6965 22.878C14.3102 22.7957 13.9475 22.6275 13.6353 22.3857C12.7699 21.6945 11.6955 21.3176 10.588 21.3166H9.1482C8.34111 20.1428 7.82853 18.7919 7.65381 17.3781H7.8226C8.47355 17.3781 9.06927 17.0123 9.36369 16.4317C9.46382 16.2238 9.67363 16.0911 9.9044 16.0896C11.1023 16.0896 12.0734 15.1185 12.0734 13.9206C12.0734 12.7227 11.1023 11.7516 9.9044 11.7516H8.7791C9.09798 11.1984 9.47523 10.681 9.9044 10.2083L10.5796 10.7147C10.899 10.9496 11.2853 11.0758 11.6818 11.0747C11.9022 11.075 12.1208 11.0356 12.3272 10.9583L15.9461 9.60286C16.012 9.57315 16.0759 9.53913 16.1374 9.50102H17.1429C17.5866 9.49384 18.0297 9.53631 18.464 9.62762C18.5889 9.66056 18.7115 9.70192 18.8308 9.7514V11.5997C18.832 12.6153 19.6551 13.4383 20.6707 13.4396H21.0814C21.3921 13.4396 21.644 13.6915 21.644 14.0022V15.2738C21.6456 16.0306 22.1951 16.6749 22.9422 16.7958C23.6893 16.9168 24.414 16.4787 24.6542 15.761L25.2697 13.9111C26.3335 17.8365 24.6251 21.9867 21.1062 24.0258H21.109Z" fill="#4C5562"/>
<path d="M24.6384 12.2426L23.5868 15.4035C23.5284 15.5753 23.3671 15.6907 23.1857 15.6905C22.9558 15.6901 22.7696 15.5039 22.7693 15.2741V14.0025C22.7693 13.0703 22.0136 12.3146 21.0814 12.3146H20.6706C20.2761 12.3143 19.9564 11.9945 19.9561 11.6V10.4241C20.7381 10.9217 21.6454 11.1871 22.5724 11.1893H24.0122C24.2447 11.5257 24.4539 11.8776 24.6384 12.2426Z" fill="#E84A5F"/>
<path d="M22.5721 10.0634C21.7196 10.0626 20.8926 9.77235 20.2265 9.24024C19.3293 8.60437 18.2396 8.2988 17.1426 8.37546H14.3293C13.0994 8.37546 11.9842 7.09656 12.7241 6.12486H16.0173C17.1086 6.11376 18.1669 5.74935 19.0336 5.08622C19.2113 4.98002 19.3162 4.7849 19.307 4.57817C19.2977 4.37144 19.1758 4.18647 18.9894 4.09655C18.803 4.00664 18.5823 4.02629 18.4147 4.14772C17.7292 4.68428 16.8877 4.98327 16.0173 4.99957H11.8137C11.5529 4.99986 11.2937 5.04125 11.0457 5.12223L1.78962 8.08907C1.49057 8.19366 1.15835 8.08902 0.973216 7.83194C0.847331 7.66698 0.797437 7.45631 0.835964 7.25241C0.87449 7.04851 0.99781 6.87056 1.17521 6.76291L10.087 1.46277C10.5174 1.20017 11.0119 1.06118 11.5161 1.06104H25.5823V10.0634H22.5721Z" fill="#4C5562"/>
</g>
</g>
<defs>
<clipPath id="clip0_1121_76704">
<rect width="32" height="32" fill="white" transform="translate(0.606445 0.393799)"/>
</clipPath>
<clipPath id="clip1_1121_76704">
<rect width="31.5083" height="31.5083" fill="white" transform="translate(0.826172 0.498047)"/>
</clipPath>
</defs>
</svg>
