<svg width="33" height="33" viewBox="0 0 33 33" fill="none" xmlns="http://www.w3.org/2000/svg">
<g clip-path="url(#clip0_1121_76575)">
<path fill-rule="evenodd" clip-rule="evenodd" d="M27.7433 1.87877V5.14369C27.7433 5.30388 27.874 5.43447 28.0341 5.43447H31.2991C31.2709 5.37268 31.2309 5.31582 31.1792 5.26412L27.9137 1.99865C27.8619 1.94702 27.8051 1.90702 27.7433 1.87877ZM28.0341 6.4191C27.3305 6.4191 26.7588 5.84734 26.7588 5.14375V1.82837H9.67341C9.35303 1.82837 9.0918 2.08967 9.0918 2.40998V12.1385H14.4878C16.0663 12.1385 17.3577 13.43 17.3577 15.0084V17.9107L17.3679 17.9028C17.5008 17.7989 17.6705 17.7745 17.8198 17.8223L22.6356 19.3828L26.5794 15.4052L26.2548 15.4337C25.9839 15.4571 25.7454 15.2564 25.7221 14.9857C25.6987 14.7148 25.8994 14.4763 26.1701 14.453L27.8309 14.3073C28.1521 14.2796 28.4123 14.5677 28.3584 14.8815L28.1765 16.5083C28.1467 16.7781 27.9039 16.9726 27.6341 16.9429C27.3643 16.9132 27.1698 16.6704 27.1995 16.4006L27.2281 16.1456L23.1197 20.289C22.9938 20.4154 22.8032 20.4684 22.6216 20.4101L17.7658 18.8363L17.3579 19.154V21.2913H18.5514C18.8226 21.2913 19.0437 21.5125 19.0437 21.7836V29.5685C19.0437 29.8397 18.8226 30.0608 18.5514 30.0608H17.0594C16.9485 30.2838 16.8095 30.4905 16.647 30.6763H30.7679C31.0883 30.6763 31.3496 30.415 31.3496 30.0947V6.4191H28.0341ZM20.7324 5.22677H25.3909C25.6628 5.22677 25.8832 5.4472 25.8832 5.71909C25.8832 5.99097 25.6628 6.2114 25.3909 6.2114H20.7324C20.4606 6.2114 20.2401 5.99097 20.2401 5.71909C20.2401 5.4472 20.4606 5.22677 20.7324 5.22677ZM15.0192 10.5637C13.0277 10.5637 11.4133 8.9493 11.4133 6.95776C11.4133 4.96621 13.0277 3.35178 15.0192 3.35178C17.0108 3.35178 18.6252 4.96621 18.6252 6.95776C18.6252 8.9493 17.0108 10.5637 15.0192 10.5637ZM27.3293 8.68874H20.7324C20.4606 8.68874 20.2401 8.46831 20.2401 8.19642C20.2401 7.92454 20.4606 7.70411 20.7324 7.70411H27.3293C27.6012 7.70411 27.8216 7.92454 27.8216 8.19642C27.8216 8.46831 27.6012 8.68874 27.3293 8.68874ZM24.1453 29.5685C24.1453 29.8397 23.9241 30.0608 23.653 30.0608C23.0653 30.0608 22.4777 30.0608 21.8901 30.0608C21.6189 30.0608 21.3977 29.8397 21.3977 29.5685C21.3977 26.897 21.3977 25.6004 21.3977 22.9288C21.3977 22.6576 21.6189 22.4364 21.8901 22.4364H23.653C23.9241 22.4364 24.1453 22.6576 24.1453 22.9288V29.5685ZM29.2469 29.5685C29.2469 29.8397 29.0257 30.0608 28.7546 30.0608H26.9917C26.7206 30.0608 26.4994 29.8397 26.4994 29.5685V18.1796C26.4994 17.9084 26.7206 17.6872 26.9917 17.6872H28.7546C29.0257 17.6872 29.2469 17.9084 29.2469 18.1796V29.5685Z" fill="#4C5562"/>
<path d="M15.5119 4.76139C15.9417 4.8857 16.3281 5.17894 16.5351 5.67175C16.6402 5.9224 16.5223 6.21089 16.2717 6.31588C16.021 6.42105 15.7325 6.30308 15.6274 6.05243C15.5001 5.74935 15.1805 5.62928 14.8724 5.69132C14.6737 5.73132 14.4623 5.85667 14.4735 6.08622C14.4862 6.34825 14.9007 6.42684 15.1018 6.45988C15.8452 6.58192 16.5568 6.90549 16.6586 7.74391C16.6627 7.77782 16.6654 7.82102 16.6666 7.87289C16.6834 8.57808 16.1487 9.01722 15.512 9.16603V9.23938C15.512 9.51126 15.2915 9.7317 15.0196 9.7317C14.7478 9.7317 14.5273 9.51126 14.5273 9.23938V9.15581C13.9688 9.00848 13.5287 8.61765 13.3859 8.04477C13.3212 7.78139 13.4821 7.51535 13.7455 7.45055C14.0089 7.38581 14.275 7.5468 14.3398 7.81019C14.4182 8.12478 14.7614 8.24595 15.0552 8.23893C15.0833 8.23826 15.1218 8.23499 15.1707 8.22909C15.3431 8.20822 15.6912 8.12299 15.6858 7.89603C15.6858 7.89413 15.6843 7.88206 15.6816 7.85936C15.6446 7.5543 15.1884 7.46932 14.9441 7.42919C14.2208 7.31042 13.5325 6.95472 13.4927 6.13243C13.46 5.46196 13.9089 4.95167 14.5273 4.76779V4.67567C14.5273 4.40378 14.7477 4.18335 15.0196 4.18335C15.2915 4.18335 15.5119 4.40378 15.5119 4.67567V4.76139Z" fill="#E84A5F"/>
<path d="M3.69636 13.1228H14.4883C15.5253 13.1228 16.3737 13.9712 16.3736 15.0081V28.7907C16.3736 29.8277 15.5253 30.676 14.4883 30.676H3.69636C2.65942 30.676 1.81104 29.8277 1.81104 28.7907V15.0081C1.81104 13.9712 2.65942 13.1228 3.69636 13.1228Z" fill="#E84A5F"/>
<path d="M6.3426 27.9699C6.58138 27.9699 6.77603 27.7752 6.77603 27.5365L6.77609 26.9731C6.77609 26.7344 6.58138 26.5396 6.34267 26.5396H4.72276C4.48405 26.5396 4.28934 26.7344 4.28934 26.9731V27.5365C4.28934 27.7752 4.48405 27.9699 4.72276 27.9699H6.3426Z" fill="white"/>
<path d="M6.3426 24.9306C6.58138 24.9306 6.77603 24.7359 6.77603 24.4971L6.77609 23.9337C6.77609 23.695 6.58138 23.5003 6.34267 23.5003H4.72276C4.48405 23.5003 4.28934 23.695 4.28934 23.9337V24.4971C4.28934 24.7359 4.48405 24.9306 4.72276 24.9306H6.3426Z" fill="white"/>
<path d="M6.3426 21.8913C6.58138 21.8913 6.77603 21.6966 6.77603 21.4579L6.77609 20.8944C6.77609 20.6558 6.58138 20.4611 6.34267 20.4611H4.72276C4.48405 20.4611 4.28934 20.6557 4.28934 20.8944V21.4579C4.28934 21.6966 4.48405 21.8913 4.72276 21.8913H6.3426Z" fill="white"/>
<path d="M9.90205 27.9699C10.1408 27.9699 10.3354 27.7752 10.3354 27.5365V26.9731C10.3354 26.7344 10.1408 26.5396 9.90205 26.5396H8.28215C8.04344 26.5396 7.84872 26.7344 7.84872 26.9731V27.5365C7.84872 27.7752 8.04344 27.9699 8.28215 27.9699H9.90205Z" fill="white"/>
<path d="M9.90205 24.9306C10.1408 24.9306 10.3354 24.7359 10.3354 24.4971V23.9337C10.3354 23.695 10.1408 23.5003 9.90205 23.5003H8.28215C8.04344 23.5003 7.84872 23.695 7.84872 23.9337V24.4971C7.84872 24.7359 8.04344 24.9306 8.28215 24.9306H9.90205Z" fill="white"/>
<path d="M9.90205 21.8913C10.1408 21.8913 10.3354 21.6966 10.3354 21.4579V20.8944C10.3354 20.6558 10.1408 20.4611 9.90205 20.4611H8.28215C8.04344 20.4611 7.84872 20.6557 7.84872 20.8944V21.4579C7.84872 21.6966 8.04344 21.8913 8.28215 21.8913H9.90205Z" fill="white"/>
<path d="M13.4614 27.9699C13.7002 27.9699 13.8949 27.7752 13.8949 27.5365V26.9731C13.8949 26.7344 13.7002 26.5396 13.4614 26.5396H11.8415C11.6028 26.5396 11.4081 26.7344 11.4081 26.9731V27.5365C11.4081 27.7752 11.6028 27.9699 11.8415 27.9699H13.4614Z" fill="white"/>
<path d="M13.4614 24.9306C13.7002 24.9306 13.8949 24.7359 13.8949 24.4971V23.9337C13.8949 23.695 13.7002 23.5003 13.4614 23.5003H11.8415C11.6028 23.5003 11.4081 23.695 11.4081 23.9337V24.4971C11.4081 24.7359 11.6028 24.9306 11.8415 24.9306H13.4614Z" fill="white"/>
<path d="M13.4614 21.8913C13.7002 21.8913 13.8949 21.6966 13.8949 21.4579V20.8944C13.8949 20.6558 13.7002 20.4611 13.4614 20.4611H11.8415C11.6028 20.4611 11.4081 20.6557 11.4081 20.8944V21.4579C11.4081 21.6966 11.6028 21.8913 11.8415 21.8913H13.4614Z" fill="white"/>
<path d="M13.8596 18.3969C14.0983 18.3969 14.293 18.2022 14.293 17.9635H14.2931V16.2623C14.2931 16.0236 14.0984 15.8289 13.8597 15.8289H4.32454C4.08582 15.8289 3.89111 16.0236 3.89111 16.2623V17.9635C3.89111 18.2022 4.08582 18.3969 4.32454 18.3969H13.8596Z" fill="white"/>
</g>
<defs>
<clipPath id="clip0_1121_76575">
<rect width="32" height="32" fill="white" transform="translate(0.606445 0.393555)"/>
</clipPath>
</defs>
</svg>
