<svg width="33" height="33" viewBox="0 0 33 33" fill="none" xmlns="http://www.w3.org/2000/svg">
<g clip-path="url(#clip0_1121_76612)">
<g clip-path="url(#clip1_1121_76612)">
<path fill-rule="evenodd" clip-rule="evenodd" d="M5.5184 29.1624C5.5184 29.4104 5.57071 29.6436 5.66486 29.8566H0.553384C0.379227 29.8566 0.23584 29.7138 0.23584 29.539V8.91464C0.23584 8.58848 0.501076 8.32324 0.829082 8.32324H11.8853C12.2114 8.32324 12.4785 8.58848 12.4785 8.91464V12.3461L11.0391 13.1172V12.6759C11.0391 11.8458 10.3622 11.1688 9.53201 11.1688H7.93444C7.10243 11.1688 6.42549 11.8458 6.42549 12.6759V15.5929L4.06729 16.8594C2.9842 17.4403 2.57742 18.7924 3.1602 19.8755C3.6279 20.7462 4.59407 21.1782 5.5184 21.0127V29.1624ZM7.93444 12.1836C7.66428 12.1836 7.44274 12.4052 7.44274 12.6753V15.0477L10.0243 13.6624V12.6753C10.0243 12.4052 9.80278 12.1836 9.53263 12.1836H7.93444Z" fill="#E84A5F"/>
<path fill-rule="evenodd" clip-rule="evenodd" d="M6.5127 20.6091V29.1809C6.5127 29.5631 6.8247 29.8751 7.20686 29.8751H12.0353V24.7445C12.0353 24.5704 12.178 24.427 12.3528 24.427H16.6772C16.8532 24.427 16.9947 24.5697 16.9947 24.7445V29.8751H21.825C22.2053 29.8751 22.5173 29.5631 22.5173 29.1809V20.6091L14.5153 16.3142L6.5127 20.6091Z" fill="#E84A5F"/>
<path fill-rule="evenodd" clip-rule="evenodd" d="M31.8231 3.46194V29.0858C31.8231 29.5461 31.4483 29.9215 30.9892 29.9215H27.3227V24.1805C27.3227 23.8666 27.0661 23.61 26.7522 23.61H23.6346V21.077C24.3989 21.2149 25.1922 20.9429 25.7085 20.3496C25.7313 20.3552 25.754 20.3583 25.778 20.3583H28.2919C28.4403 20.3583 28.5609 20.2376 28.5609 20.0893V17.5754C28.5609 17.4271 28.4403 17.3065 28.2919 17.3065H25.778C25.7276 17.3065 25.6802 17.3207 25.6402 17.3447C25.4814 17.1791 25.2968 17.0357 25.0839 16.9225L20.3078 14.3581H22.3995C22.5478 14.3581 22.6685 14.2375 22.6685 14.0892V11.5753C22.6685 11.4289 22.5478 11.3064 22.3995 11.3064H19.8856C19.7373 11.3064 19.6167 11.4282 19.6167 11.5753V13.9877L16.3545 12.2381V3.46194C16.3545 3.05024 16.6911 2.71362 17.1028 2.71362H31.0741C31.4865 2.71362 31.8231 3.05024 31.8231 3.46194ZM22.6678 5.57952C22.6678 5.43121 22.5472 5.31059 22.3989 5.31059H19.885C19.7367 5.31059 19.6161 5.43121 19.6161 5.57952V8.09341C19.6161 8.23988 19.7367 8.36234 19.885 8.36234H22.3989C22.5472 8.36234 22.6678 8.24049 22.6678 8.09341V5.57952ZM28.5609 11.5772C28.5609 11.4307 28.4403 11.3082 28.2919 11.3082H25.778C25.6297 11.3082 25.5091 11.4301 25.5091 11.5772V14.0911C25.5091 14.2394 25.6297 14.36 25.778 14.36H28.2919C28.4403 14.36 28.5609 14.2394 28.5609 14.0911V11.5772ZM28.5609 5.57952C28.5609 5.43121 28.4403 5.31059 28.2919 5.31059H25.778C25.6297 5.31059 25.5091 5.43121 25.5091 5.57952V8.09341C25.5091 8.23988 25.6297 8.36234 25.778 8.36234H28.2919C28.4403 8.36234 28.5609 8.24049 28.5609 8.09341V5.57952Z" fill="#4C5562"/>
<path fill-rule="evenodd" clip-rule="evenodd" d="M24.9731 19.4581C25.2906 18.8704 25.0691 18.1356 24.4814 17.8181L15.0652 12.7663C14.6905 12.5638 14.2541 12.5817 13.9052 12.773L4.50442 17.8181C3.91487 18.1356 3.69518 18.8698 4.01088 19.4581C4.32842 20.0476 5.06074 20.2673 5.65091 19.9516L14.4935 15.2069L23.3343 19.9516C23.9232 20.2673 24.6574 20.0476 24.9731 19.4581Z" fill="#4C5562"/>
</g>
</g>
<defs>
<clipPath id="clip0_1121_76612">
<rect width="32" height="32" fill="white" transform="translate(0.23584 0.498047)"/>
</clipPath>
<clipPath id="clip1_1121_76612">
<rect width="31.5083" height="31.5083" fill="white" transform="translate(0.23584 0.498047)"/>
</clipPath>
</defs>
</svg>
